# xmcd
#
# Track frame offsets: 
#        150
#        9340
#        23068
#        35815
#        49243
#        59740
#        66865
#        80140
#        91165
#        102793
#        114193
#        128968
#        144293
#        157465
#        169393
#        182140
#        196353
#        215740
#        226768
#        238243
#        249718
#        264568
#        277318
#        287293
#        298243
#        311068
#        329743
#
# Disc length: 4560 seconds
#
# Revision: 0
# Processed by: cddbd v1.5.1PL0 Copyright (c) Steve Scherf et al.
# Submitted via: ExactAudioCopy v0.95a3
#
DISCID=ab11ce1b
DTITLE=Sonny Boy Williamson - 27 Classic Blues Tracks
DYEAR=1955
DGENRE=Blues
TTITLE0=One Way Out
TTITLE1=Don't Lose Your Eye
TTITLE2=Keep It To Yourself
TTITLE3=Sad to be Alone
TTITLE4=Let Your Conscience Be Your Guide
TTITLE5=I Wonder Why
TTITLE6=I Never Do Wrong
TTITLE7=I Don't Know
TTITLE8=Don't Start Me Talkin'
TTITLE9=Bring It On Home
TTITLE10=Key To You
TTITLE11=Cross My Heart
TTITLE12=Let Me Explain
TTITLE13=Stop Crying
TTITLE14=All My Love In Vain
TTITLE15=Help Me
TTITLE16=Nine Below Zero
TTITLE17=Go To Move
TTITLE18=She Got Next To Me
TTITLE19=Born Blind
TTITLE20=I Can't Be Alone
TTITLE21=Keep Your Hand Out Of My Pocket
TTITLE22=Too Close Together
TTITLE23=Understand My Life
TTITLE24=Like Wolf
TTITLE25=99
TTITLE26=Santa Claus
EXTD=
EXTT0=
EXTT1=
EXTT2=
EXTT3=
EXTT4=
EXTT5=
EXTT6=
EXTT7=
EXTT8=
EXTT9=
EXTT10=
EXTT11=
EXTT12=
EXTT13=
EXTT14=
EXTT15=
EXTT16=
EXTT17=
EXTT18=
EXTT19=
EXTT20=
EXTT21=
EXTT22=
EXTT23=
EXTT24=
EXTT25=
EXTT26=
PLAYORDER=
